<svg width="42" height="42" viewBox="0 0 42 42" fill="none" xmlns="http://www.w3.org/2000/svg">
<path d="M8.75 36.75C7.7875 36.75 6.96354 36.4073 6.27812 35.7219C5.59271 35.0365 5.25 34.2125 5.25 33.25V8.75C5.25 7.7875 5.59271 6.96354 6.27812 6.27812C6.96354 5.59271 7.7875 5.25 8.75 5.25H21V8.75H8.75V33.25H33.25V21H36.75V33.25C36.75 34.2125 36.4073 35.0365 35.7219 35.7219C35.0365 36.4073 34.2125 36.75 33.25 36.75H8.75ZM16.975 27.475L14.525 25.025L30.8 8.75H24.5V5.25H36.75V17.5H33.25V11.2L16.975 27.475Z" fill="#0A3F89"/>
</svg>
