<svg width="40" height="40" viewBox="0 0 40 40" fill="none" xmlns="http://www.w3.org/2000/svg">
<path d="M20 20C20.9166 20 21.7013 19.6736 22.3541 19.0208C23.0069 18.3681 23.3333 17.5833 23.3333 16.6667C23.3333 15.75 23.0069 14.9653 22.3541 14.3125C21.7013 13.6597 20.9166 13.3333 20 13.3333C19.0833 13.3333 18.2986 13.6597 17.6458 14.3125C16.993 14.9653 16.6666 15.75 16.6666 16.6667C16.6666 17.5833 16.993 18.3681 17.6458 19.0208C18.2986 19.6736 19.0833 20 20 20ZM20 32.25C23.3888 29.1389 25.9027 26.3125 27.5416 23.7708C29.1805 21.2292 30 18.9722 30 17C30 13.9722 29.0347 11.4931 27.1041 9.5625C25.1736 7.63195 22.8055 6.66667 20 6.66667C17.1944 6.66667 14.8263 7.63195 12.8958 9.5625C10.9652 11.4931 9.99996 13.9722 9.99996 17C9.99996 18.9722 10.8194 21.2292 12.4583 23.7708C14.0972 26.3125 16.6111 29.1389 20 32.25ZM20 36.6667C15.5277 32.8611 12.1875 29.3264 9.97913 26.0625C7.77079 22.7986 6.66663 19.7778 6.66663 17C6.66663 12.8333 8.0069 9.51389 10.6875 7.04167C13.368 4.56945 16.4722 3.33334 20 3.33334C23.5277 3.33334 26.6319 4.56945 29.3125 7.04167C31.993 9.51389 33.3333 12.8333 33.3333 17C33.3333 19.7778 32.2291 22.7986 30.0208 26.0625C27.8125 29.3264 24.4722 32.8611 20 36.6667Z" fill="#3588D2"/>
</svg>
